<!-- Source : https://www.iconfinder.com/icons/5208399/delete_garbage_recycle_remove_trash_icon -->
<?xml version="1.0" ?><svg viewBox="0 0 32 32" xmlns="http://www.w3.org/2000/svg"><title/><g id="Trash"><path d="M7.13,11.58V25a3,3,0,0,0,3,3H21.88a3,3,0,0,0,3-3V11.58a1,1,0,0,0-1-1H8.13A1,1,0,0,0,7.13,11.58ZM13,23a1,1,0,0,1-2,0V15a1,1,0,0,1,2,0Zm4,0a1,1,0,0,1-2,0V15a1,1,0,0,1,2,0Zm4,0a1,1,0,0,1-2,0V15a1,1,0,0,1,2,0Z"/><path d="M25.23,9.3A2.49,2.49,0,0,0,26,7.21,2.6,2.6,0,0,0,23.36,5H18.72A2,2,0,0,0,17,4H15a2,2,0,0,0-1.72,1H8.64A2.6,2.6,0,0,0,6,7.21,2.49,2.49,0,0,0,6.77,9.3a1,1,0,0,0,.71.29h17A1,1,0,0,0,25.23,9.3Z"/></g></svg>